# xmcd
#
# Track frame offsets: 
#        182
#        6632
#        20820
#        30482
#        35352
#        56912
#        73897
#        111070
#        120020
#        141275
#        156827
#        224632
#        250957
#        260302
#        282187
#        305845
#
# Disc length: 4411 seconds
#
# Revision: 1
# Processed by: cddbd v1.5.2PL0 Copyright (c) Steve Scherf et al.
# Submitted via: ExactAudioCopyFreeDBPlugin 1.0
#
DISCID=f1113910
DTITLE=Bobby Womack - Soul Sensation Live
DYEAR=1998
DGENRE=Soul
TTITLE0=Womack's Groove
TTITLE1=Baby I'm Back
TTITLE2=Nobody Knows You When You're Down and Out
TTITLE3=Daylight
TTITLE4=Woman's Gotta Have It
TTITLE5=That's The Way I Feel About Cha
TTITLE6=Inherit the Wind
TTITLE7=If You Think You're Lonely Now
TTITLE8=A World Where No One Cries
TTITLE9=Ain't Nothing Like the Loving We Got
TTITLE10=Trying to Get Over You
TTITLE11=I Wanna Make Love to You
TTITLE12=It's All Over Now (Blues Version)
TTITLE13=When the Weekend Comes
TTITLE14=No Matter How High I Get
TTITLE15=How Can it Be?
EXTD=
EXTT0=
EXTT1=
EXTT2=
EXTT3=
EXTT4=
EXTT5=
EXTT6=
EXTT7=
EXTT8=
EXTT9=
EXTT10=
EXTT11=
EXTT12=
EXTT13=
EXTT14=
EXTT15=
PLAYORDER=
